<?xml version="1.0" standalone="no"?>
<!DOCTYPE svg PUBLIC "-//W3C//DTD SVG 20010904//EN"
 "http://www.w3.org/TR/2001/REC-SVG-20010904/DTD/svg10.dtd">
<svg version="1.0" xmlns="http://www.w3.org/2000/svg"
 width="128.000000pt" height="128.000000pt" viewBox="0 0 128.000000 128.000000"
 preserveAspectRatio="xMidYMid meet">

<g transform="translate(0.000000,128.000000) scale(0.100000,-0.100000)"
fill="#000000" stroke="none">
<path d="M567 1060 c-128 -32 -230 -146 -256 -286 -6 -30 -6 -66 -1 -89 5 -23
5 -46 -1 -56 -8 -16 -5 -18 21 -16 33 2 38 14 14 32 -14 10 -15 20 -5 85 15
94 38 147 93 206 80 87 197 117 311 78 61 -21 148 -113 175 -186 28 -75 38
-173 19 -185 -7 -4 -31 -60 -51 -123 -21 -63 -44 -126 -52 -141 l-14 -27 49
-7 c29 -4 57 -2 69 4 45 24 102 251 63 251 -5 0 -16 -26 -26 -59 -15 -50 -20
-58 -37 -53 -16 4 -19 11 -14 35 3 16 6 45 6 64 0 29 3 33 19 28 16 -5 19 2
24 61 19 200 -119 374 -309 389 -32 2 -76 0 -97 -5z"/>
<path d="M387 693 c-10 -3 -17 -10 -14 -16 2 -7 26 -88 53 -180 47 -162 50
-168 74 -165 31 4 32 1 -29 178 -28 80 -51 155 -51 168 0 22 -2 23 -33 15z"/>
<path d="M816 531 c-31 -91 -57 -173 -59 -181 -1 -10 7 -16 24 -18 23 -3 28 2
36 35 6 21 26 90 45 153 51 166 51 167 29 173 -16 4 -26 -17 -75 -162z"/>
<path d="M271 593 c-13 -25 -10 -45 26 -156 29 -91 46 -105 115 -91 l44 9 -33
75 c-18 41 -33 69 -33 63 0 -7 -6 -13 -14 -13 -8 0 -21 -7 -29 -15 -15 -15
-13 -19 -56 125 l-8 25 -12 -22z"/>
<path d="M361 590 c0 -8 4 -24 9 -35 5 -13 9 -14 9 -5 0 8 -4 24 -9 35 -5 13
-9 14 -9 5z"/>
</g>
</svg>
